<?xml version="1.0" standalone="no"?>
<!DOCTYPE svg PUBLIC "-//W3C//DTD SVG 20010904//EN"
 "http://www.w3.org/TR/2001/REC-SVG-20010904/DTD/svg10.dtd">
<svg version="1.0" xmlns="http://www.w3.org/2000/svg"
 width="1701.000000pt" height="353.000000pt" viewBox="0 0 1701.000000 353.000000"
 preserveAspectRatio="xMidYMid meet">

<g transform="translate(0.000000,353.000000) scale(0.100000,-0.100000)"
fill="#000000" stroke="none">
<path d="M2942 3450 c-84 -12 -198 -44 -264 -74 -72 -33 -166 -103 -206 -154
-147 -185 -128 -453 43 -610 112 -103 240 -152 534 -207 228 -42 332 -74 403
-124 180 -127 77 -325 -201 -387 -56 -13 -103 -15 -200 -11 -211 9 -327 62
-497 228 l-90 89 -87 -109 c-48 -61 -87 -116 -87 -124 0 -24 156 -164 233
-209 293 -172 768 -184 1045 -27 77 44 182 151 215 219 39 80 60 190 53 275
-20 227 -207 360 -621 439 -77 15 -174 34 -215 43 -170 35 -273 94 -311 177
-81 178 116 326 416 313 184 -8 304 -61 434 -190 l68 -68 92 98 c50 54 91 103
91 108 0 23 -104 126 -171 171 -84 56 -184 96 -294 119 -95 19 -295 27 -383
15z"/>
<path d="M13600 3440 c-214 -26 -415 -112 -574 -246 -273 -231 -373 -606 -255
-958 146 -437 615 -680 1158 -600 372 54 635 260 716 559 20 74 30 223 21 298
l-7 57 -465 0 -464 0 0 -135 0 -135 315 0 315 0 0 -27 c0 -83 -99 -204 -218
-266 -110 -58 -197 -78 -359 -84 -124 -5 -156 -3 -238 17 -241 55 -432 216
-496 418 -29 93 -36 245 -15 336 72 305 381 510 745 493 177 -8 332 -64 484
-175 l69 -50 69 73 c102 107 114 124 102 144 -14 23 -112 101 -176 139 -193
116 -476 171 -727 142z"/>
<path d="M103 2848 c3 -663 1 -637 77 -793 72 -146 187 -261 335 -335 207
-104 500 -118 722 -35 218 82 389 260 457 476 39 122 46 234 46 774 l0 506
-137 -3 -138 -3 -5 -565 c-5 -551 -6 -566 -27 -618 -67 -164 -202 -283 -370
-327 -76 -20 -225 -19 -294 1 -185 54 -331 205 -374 385 -12 53 -15 157 -15
597 l0 532 -140 0 -141 0 4 -592z"/>
<path d="M4423 2848 c3 -532 5 -599 21 -653 63 -213 209 -388 402 -481 205
-98 494 -110 711 -29 219 82 389 260 458 477 39 124 46 250 43 783 l-3 490
-135 0 -135 0 -5 -565 c-5 -551 -6 -566 -27 -618 -67 -164 -202 -283 -370
-327 -88 -23 -234 -19 -314 8 -138 47 -242 134 -306 254 -61 113 -63 133 -63
721 l0 532 -140 0 -141 0 4 -592z"/>
<path d="M6750 2540 l0 -890 145 0 145 0 0 330 0 330 253 0 254 0 219 -329
c188 -282 223 -330 248 -335 31 -7 326 -8 326 -2 0 2 -106 160 -236 351 -129
191 -234 348 -232 350 2 1 32 17 68 36 95 49 207 164 253 259 75 153 74 321
-3 476 -70 143 -214 258 -375 299 -49 12 -145 15 -562 15 l-503 0 0 -890z
m942 609 c76 -16 138 -50 187 -104 54 -59 71 -100 71 -174 0 -119 -94 -240
-214 -276 -40 -12 -116 -15 -373 -15 l-323 0 0 290 0 290 300 0 c183 0 320 -4
352 -11z"/>
<path d="M8950 3295 l0 -135 190 0 190 0 0 -620 0 -620 -190 0 -190 0 0 -135
0 -135 525 0 525 0 0 135 0 135 -190 0 -190 0 0 620 0 620 190 0 190 0 0 135
0 135 -525 0 -525 0 0 -135z"/>
<path d="M11187 3193 c-58 -131 -221 -499 -362 -818 -141 -319 -269 -609 -286
-644 -16 -35 -29 -67 -29 -72 0 -6 63 -8 147 -7 l146 3 91 207 91 208 455 0
456 0 91 -207 92 -208 155 -3 155 -3 -29 68 c-16 38 -128 293 -250 568 -121
275 -285 645 -363 823 l-142 322 -156 0 -157 0 -105 -237z m466 -578 l116
-260 -164 -3 c-91 -1 -239 -1 -329 0 l-163 3 104 235 c57 129 126 291 154 360
27 69 55 136 60 150 10 23 15 14 59 -100 26 -69 100 -242 163 -385z"/>
<path d="M15697 3193 c-58 -131 -221 -499 -362 -818 -141 -319 -269 -609 -286
-644 -16 -35 -29 -67 -29 -72 0 -6 63 -8 147 -7 l146 3 91 207 91 208 455 0
456 0 91 -207 92 -208 155 -3 155 -3 -29 68 c-16 38 -128 293 -250 568 -121
275 -285 645 -363 823 l-142 322 -156 0 -157 0 -105 -237z m466 -578 l116
-260 -164 -3 c-91 -1 -239 -1 -329 0 l-163 3 104 235 c57 129 126 291 154 360
27 69 55 136 60 150 10 23 15 14 59 -100 26 -69 100 -242 163 -385z"/>
<path d="M14533 1210 c-47 -20 -57 -87 -18 -125 50 -51 135 -17 135 54 0 24
-7 44 -18 54 -23 21 -70 29 -99 17z"/>
<path d="M10780 710 l0 -500 55 0 55 0 0 500 0 500 -55 0 -55 0 0 -500z"/>
<path d="M11270 710 l0 -500 55 0 55 0 0 500 0 500 -55 0 -55 0 0 -500z"/>
<path d="M8894 1145 c-307 -67 -471 -400 -334 -680 134 -276 512 -359 790
-173 l61 40 -27 47 c-15 25 -28 47 -29 49 -1 1 -32 -18 -69 -43 -92 -61 -155
-78 -275 -73 -82 3 -106 8 -161 35 -91 43 -143 92 -182 171 -30 61 -33 74 -33
162 1 115 20 165 95 244 81 85 221 136 333 121 98 -14 205 -62 251 -114 27
-29 36 -26 73 22 l32 42 -31 32 c-99 103 -321 156 -494 118z"/>
<path d="M13840 1015 l0 -105 -105 0 -105 0 0 -50 0 -50 105 0 105 0 0 -300 0
-300 55 0 55 0 0 300 0 300 115 0 115 0 0 50 0 50 -115 0 -115 0 0 105 0 105
-55 0 -55 0 0 -105z"/>
<path d="M9925 916 c-115 -29 -222 -113 -267 -211 -19 -41 -23 -67 -23 -145 1
-83 4 -102 28 -151 75 -155 265 -241 468 -211 147 21 262 101 316 219 34 73
38 190 10 271 -23 64 -97 148 -164 185 -100 54 -251 72 -368 43z m275 -123
c107 -47 159 -122 160 -229 0 -117 -78 -215 -198 -250 -72 -21 -190 -15 -253
13 -179 80 -219 291 -79 416 50 46 96 67 165 77 73 10 143 1 205 -27z"/>
<path d="M11950 916 c-241 -70 -354 -311 -246 -524 110 -217 463 -267 709
-101 11 8 -31 89 -46 89 -5 0 -21 -9 -36 -19 -15 -11 -56 -29 -91 -41 -54 -18
-80 -21 -155 -18 -147 8 -249 65 -290 165 -28 67 -49 63 321 63 l337 0 -5 83
c-6 100 -35 165 -104 225 -67 60 -139 84 -254 88 -58 2 -113 -2 -140 -10z
m255 -121 c58 -26 102 -66 121 -112 28 -66 43 -63 -267 -63 l-280 0 6 23 c30
98 108 159 230 177 69 10 131 2 190 -25z"/>
<path d="M12948 911 c-114 -37 -194 -106 -240 -208 -18 -39 -23 -66 -23 -143
0 -115 19 -164 94 -243 94 -100 229 -142 383 -119 81 12 178 50 239 92 32 23
31 30 -13 83 l-23 27 -45 -30 c-76 -51 -160 -73 -254 -68 -93 5 -141 26 -198
85 -49 51 -68 99 -68 177 0 50 6 75 28 117 85 163 306 191 493 63 28 -20 52
-34 53 -32 1 2 15 20 30 41 l28 39 -28 29 c-35 37 -131 83 -202 98 -78 16
-189 13 -254 -8z"/>
<path d="M15245 916 c-115 -29 -222 -114 -268 -214 -30 -65 -30 -216 0 -282
73 -161 268 -252 474 -222 193 28 326 154 344 327 16 145 -62 287 -194 355
-95 48 -246 63 -356 36z m257 -112 c58 -19 135 -85 159 -139 29 -62 25 -149
-8 -216 -50 -97 -149 -149 -284 -149 -172 0 -302 112 -302 259 0 196 211 315
435 245z"/>
<path d="M16405 916 c-54 -17 -82 -33 -131 -72 -23 -18 -44 -30 -48 -27 -3 4
-6 26 -6 50 l0 43 -55 0 -55 0 0 -350 0 -350 54 0 54 0 4 223 c3 242 4 244 67
310 43 46 73 63 137 77 97 22 198 -23 235 -104 16 -36 19 -68 19 -273 l0 -233
55 0 55 0 0 250 c0 292 -8 328 -84 398 -71 66 -199 90 -301 58z"/>
<path d="M14520 560 l0 -350 55 0 55 0 0 350 0 350 -55 0 -55 0 0 -350z"/>
<path d="M286 544 c-9 -8 -16 -24 -16 -34 0 -10 7 -26 16 -34 14 -15 371 -16
3784 -16 l3768 0 -3 39 c-1 21 -6 44 -9 50 -5 8 -1020 11 -3766 11 -3404 0
-3760 -1 -3774 -16z"/>
</g>
</svg>
